# xmcd
#
# Track frame offsets: 
#        150
#        27610
#        47689
#        59245
#        65007
#        86604
#        107115
#        123092
#        139520
#        160492
#        178222
#        191517
#        213402
#        235692
#        250340
#        263565
#        284885
#
# Disc length: 4084 seconds
#
# Revision: 1
# Processed by: cddbd v1.5.2PL0 Copyright (c) Steve Scherf et al.
# Submitted via: ExactAudioCopy v1.3
#
DISCID=080ff211
DTITLE=HELLOISE - POLARITY
DYEAR=1986
DGENRE=Hard Rock
TTITLE0=Polarity
TTITLE1=Destination
TTITLE2=Give It Up
TTITLE3=En La Linea De Fuego
TTITLE4=In The Line Of Fire
TTITLE5=Helloise
TTITLE6=See Tomorrow
TTITLE7=Pool Of Confusion
TTITLE8=So Close To Love
TTITLE9=Sole Survivor
TTITLE10=Mystery Eyes
TTITLE11=Polarity (Demo)
TTITLE12=In The Line Of Fire (Demo)
TTITLE13=Slow Down (Give It Up) (Demo)
TTITLE14=Sole Survivor (Demo)
TTITLE15=Helloïse (Demo)
TTITLE16=So Close To Love (Demo)
EXTD=
EXTT0=
EXTT1=
EXTT2=
EXTT3=
EXTT4=
EXTT5=
EXTT6=
EXTT7=
EXTT8=
EXTT9=
EXTT10=
EXTT11=
EXTT12=
EXTT13=
EXTT14=
EXTT15=
EXTT16=
PLAYORDER=
